<svg id="Layer_1" data-name="Layer 1" xmlns="http://www.w3.org/2000/svg" viewBox="0 0 108.03 105.37"><defs><style>.cls-1{fill:#fff;fill-rule:evenodd;}</style></defs><path class="cls-1" d="M59.54,3A54,54,0,0,0,42.47,108.27c2.7.5,3.68-1.17,3.68-2.6s0-4.68-.07-9.19c-15,3.27-18.2-7.24-18.2-7.24-2.45-6.24-6-7.9-6-7.9-4.91-3.35.37-3.28.37-3.28,5.42.38,8.27,5.56,8.27,5.56,4.82,8.26,12.64,5.87,15.72,4.49a11.55,11.55,0,0,1,3.43-7.22c-12-1.36-24.6-6-24.6-26.7A20.85,20.85,0,0,1,30.64,39.7c-.56-1.37-2.41-6.86.53-14.3,0,0,4.53-1.45,14.85,5.54a51.16,51.16,0,0,1,27,0c10.31-7,14.84-5.54,14.84-5.54,2.94,7.44,1.09,12.93.53,14.3A20.8,20.8,0,0,1,94,54.19c0,20.75-12.63,25.32-24.67,26.66,1.94,1.67,3.67,5,3.67,10,0,7.22-.07,13.05-.07,14.82,0,1.44,1,3.12,3.72,2.6A54,54,0,0,0,59.54,3Z" transform="translate(-5.52 -3)"/></svg>